<svg width="1067" height="1067" viewBox="0 0 1067 1067" fill="none" xmlns="http://www.w3.org/2000/svg">
<path d="M0 533.334V1066.67H533.333H1066.67V533.334V0.00026989H533.333H0V533.334ZM268.667 236.667C285.6 241.467 320.4 251.734 346 259.334C371.733 266.934 407.333 277.467 425.333 282.667C443.333 288 475.067 297.2 496 303.334C516.933 309.467 537.733 315.467 542.267 316.667L550.533 318.934L568.933 341.067C579.067 353.334 593.067 370.267 600 378.8C606.933 387.334 617.467 400.134 623.2 407.2C628.933 414.267 633.333 420.4 632.933 420.8C632.133 421.734 612.133 415.867 514.533 385.867C475.2 373.867 442.533 364 441.867 364C441.2 364.134 442.133 365.334 444 366.8C445.867 368.4 453.2 375.067 460.533 381.867C467.733 388.534 480 398.4 487.867 403.734C499.467 411.734 538.667 434.934 553.733 442.534C557.333 444.4 558.933 447.2 555.733 446C553.2 445.067 377.867 420.134 298 409.334C281.2 407.067 266.133 404.934 264.667 404.534C263.2 404.134 257.467 398.8 252 392.534C246.533 386.267 240.667 379.734 238.933 377.867C231.333 369.334 231.733 374.267 232.8 297.334C233.6 233.467 234 226.667 235.867 227.2C237.067 227.6 251.867 231.734 268.667 236.667ZM754.667 240.534C767.2 243.867 781.333 251.067 789.333 258.267C795.733 264 810 279.6 839.2 312.534C845.733 320 854.933 330.4 859.867 335.734C864.667 341.2 868.8 346.134 869.067 346.8C869.333 347.467 854.267 348.134 834.4 348.267L799.333 348.667V460.934C799.333 522.667 798.933 573.467 798.533 573.867C798.133 574.4 793.067 569.734 787.333 563.734C781.6 557.6 763.333 538.534 746.8 521.334C694.267 466.8 683.6 455.6 672.4 442.934L661.333 430.667V359.334V288L641.2 264.667C630.133 251.867 620.533 241.067 619.867 240.667C614.933 237.6 622.533 237.2 682.4 237.734C737.2 238.134 747.2 238.534 754.667 240.534ZM324.667 453.334C343.733 456 430.267 467.867 450 470.667C540.133 483.334 566.133 487.067 566.667 487.6C567.067 487.867 564 491.334 560 495.067C556 498.8 539.867 514.267 524.267 529.334C497.2 555.2 495.467 556.667 489.6 557.6C486.133 558 464.933 558.534 442.533 558.534L401.733 558.667L389.333 544.934C382.533 537.467 362.667 516.267 345.333 498C315.2 466.267 302.667 452.534 302.667 451.2C302.667 450.4 302.667 450.4 324.667 453.334ZM636 652.667V833.334H581.333H526.667L527.333 830.267C527.733 828.667 529.6 820.134 531.467 811.334C536.933 785.334 542.133 761.067 548.667 731.334C555.467 700.4 558.667 685.2 579.2 586.667C586.933 549.734 593.333 518.4 593.333 517.067C593.333 515.067 633.733 472 635.467 472C635.733 472 636 553.334 636 652.667ZM692.133 518C699.733 526 722.133 549.467 742 570C788.4 618.267 797.333 627.734 797.333 629.067C797.333 630.934 676.267 750.667 674.533 750.667C673.333 750.667 673.067 736.934 673.733 692.4C674.267 660.4 674.667 603.867 674.667 566.8C674.667 510.134 674.933 499.734 676.4 501.334C677.467 502.4 684.533 509.867 692.133 518ZM539.333 593.467C535.2 611.334 529.2 638.267 526 653.334C522.8 668.4 517.067 693.867 513.333 710C509.6 726.134 506 742 505.333 745.334C504.667 748.667 501.067 765.2 497.2 782C493.467 798.934 489.333 817.2 488.133 822.667L486 832.667L374.267 833.067C312.8 833.2 262.667 832.8 262.933 832.267C263.333 831.334 303.6 792.134 354 744C408.267 692.134 430.133 671.2 442 660C449.333 653.2 465.867 637.2 478.667 624.8C523.333 581.2 545.6 559.867 546.133 560.4C546.4 560.667 543.333 575.6 539.333 593.467Z" fill="black"/>
<path d="M733.997 283.067C726.531 287.333 722.664 293.6 722.664 301.6C722.664 309.2 724.931 314.4 730.664 319.2C739.997 326.933 752.797 326.4 760.931 317.867C778.397 299.2 756.264 270.533 733.997 283.067Z" fill="black"/>
</svg>
