<?xml version="1.0" standalone="no"?>
<!DOCTYPE svg PUBLIC "-//W3C//DTD SVG 20010904//EN"
 "http://www.w3.org/TR/2001/REC-SVG-20010904/DTD/svg10.dtd">
<svg version="1.0" xmlns="http://www.w3.org/2000/svg"
 width="800.000000pt" height="800.000000pt" viewBox="0 0 800.000000 800.000000"
 preserveAspectRatio="xMidYMid meet">
<metadata>
Created by potrace 1.15, written by Peter Selinger 2001-2017
</metadata>
<g transform="translate(0.000000,800.000000) scale(0.100000,-0.100000)"
fill="#000000" stroke="none">
<path d="M0 4000 l0 -4000 4000 0 4000 0 0 4000 0 4000 -4000 0 -4000 0 0
-4000z m2015 2225 c127 -36 388 -113 580 -170 193 -57 460 -136 595 -175 135
-40 373 -109 530 -155 157 -46 313 -91 347 -100 l62 -17 138 -166 c76 -92 181
-219 233 -283 52 -64 131 -160 174 -213 43 -53 76 -99 73 -102 -6 -7 -156 37
-888 262 -295 90 -540 164 -545 164 -5 -1 2 -10 16 -21 14 -12 69 -62 124
-113 54 -50 146 -124 205 -164 87 -60 381 -234 494 -291 27 -14 39 -35 15 -26
-19 7 -1334 194 -1933 275 -126 17 -239 33 -250 36 -11 3 -54 43 -95 90 -41
47 -85 96 -98 110 -57 64 -54 27 -46 604 6 479 9 530 23 526 9 -3 120 -34 246
-71z m3645 -29 c94 -25 200 -79 260 -133 48 -43 155 -160 374 -407 49 -56 118
-134 155 -174 36 -41 67 -78 69 -83 2 -5 -111 -10 -260 -11 l-263 -3 0 -842
c0 -463 -3 -844 -6 -847 -3 -4 -41 31 -84 76 -43 46 -180 189 -304 318 -394
409 -474 493 -558 588 l-83 92 0 535 0 535 -151 175 c-83 96 -155 177 -160
180 -37 23 20 26 469 22 411 -3 486 -6 542 -21z m-3225 -1596 c143 -20 792
-109 940 -130 676 -95 871 -123 875 -127 3 -2 -20 -28 -50 -56 -30 -28 -151
-144 -268 -257 -203 -194 -216 -205 -260 -212 -26 -3 -185 -7 -353 -7 l-306
-1 -93 103 c-51 56 -200 215 -330 352 -226 238 -320 341 -320 351 0 6 0 6 165
-16z m2335 -1495 l0 -1355 -410 0 -410 0 5 23 c3 12 17 76 31 142 41 195 80
377 129 600 51 232 75 346 229 1085 58 277 106 512 106 522 0 15 303 338 316
338 2 0 4 -610 4 -1355z m421 1010 c57 -60 225 -236 374 -390 348 -362 415
-433 415 -443 0 -14 -908 -912 -921 -912 -9 0 -11 103 -6 437 4 240 7 664 7
942 0 425 2 503 13 491 8 -8 61 -64 118 -125z m-1146 -566 c-31 -134 -76 -336
-100 -449 -24 -113 -67 -304 -95 -425 -28 -121 -55 -240 -60 -265 -5 -25 -32
-149 -61 -275 -28 -127 -59 -264 -68 -305 l-16 -75 -838 -3 c-461 -1 -837 2
-835 6 3 7 305 301 683 662 407 389 571 546 660 630 55 51 179 171 275 264
335 327 502 487 506 483 2 -2 -21 -114 -51 -248z"/>
<path d="M5505 5877 c-56 -32 -85 -79 -85 -139 0 -57 17 -96 60 -132 70 -58
166 -54 227 10 131 140 -35 355 -202 261z"/>
</g>
</svg>
