<svg width="1067" height="1067" viewBox="0 0 1067 1067" fill="none" xmlns="http://www.w3.org/2000/svg">
<g clip-path="url(#clip0_660_376)">
<rect width="1066.67" height="1066.67" fill="white"/>
<path d="M0 533.333V1066.67H533.333H1066.67V533.333V-0.000706673H533.333H0V533.333ZM268.667 236.666C285.6 241.466 320.4 251.733 346 259.333C371.733 266.933 407.333 277.466 425.333 282.666C443.333 287.999 475.067 297.199 496 303.333C516.933 309.466 537.733 315.466 542.267 316.666L550.533 318.933L568.933 341.066C579.067 353.333 593.067 370.266 600 378.799C606.933 387.333 617.467 400.133 623.2 407.199C628.933 414.266 633.333 420.399 632.933 420.799C632.133 421.733 612.133 415.866 514.533 385.866C475.2 373.866 442.533 363.999 441.867 363.999C441.2 364.133 442.133 365.333 444 366.799C445.867 368.399 453.2 375.066 460.533 381.866C467.733 388.533 480 398.399 487.867 403.733C499.467 411.733 538.667 434.933 553.733 442.533C557.333 444.399 558.933 447.199 555.733 445.999C553.2 445.066 377.867 420.133 298 409.333C281.2 407.066 266.133 404.933 264.667 404.533C263.2 404.133 257.467 398.799 252 392.533C246.533 386.266 240.667 379.733 238.933 377.866C231.333 369.333 231.733 374.266 232.8 297.333C233.6 233.466 234 226.666 235.867 227.199C237.067 227.599 251.867 231.733 268.667 236.666ZM754.667 240.533C767.2 243.866 781.333 251.066 789.333 258.266C795.733 263.999 810 279.599 839.2 312.533C845.733 319.999 854.933 330.399 859.867 335.733C864.667 341.199 868.8 346.133 869.067 346.799C869.333 347.466 854.267 348.133 834.4 348.266L799.333 348.666V460.933C799.333 522.666 798.933 573.466 798.533 573.866C798.133 574.399 793.067 569.733 787.333 563.733C781.6 557.599 763.333 538.533 746.8 521.333C694.267 466.799 683.6 455.599 672.4 442.933L661.333 430.666V359.333V287.999L641.2 264.666C630.133 251.866 620.533 241.066 619.867 240.666C614.933 237.599 622.533 237.199 682.4 237.733C737.2 238.133 747.2 238.533 754.667 240.533ZM324.667 453.333C343.733 455.999 430.267 467.866 450 470.666C540.133 483.333 566.133 487.066 566.667 487.599C567.067 487.866 564 491.333 560 495.066C556 498.799 539.867 514.266 524.267 529.333C497.2 555.199 495.467 556.666 489.6 557.599C486.133 557.999 464.933 558.533 442.533 558.533L401.733 558.666L389.333 544.933C382.533 537.466 362.667 516.266 345.333 497.999C315.2 466.266 302.667 452.533 302.667 451.199C302.667 450.399 302.667 450.399 324.667 453.333ZM636 652.666V833.333H581.333H526.667L527.333 830.266C527.733 828.666 529.6 820.133 531.467 811.333C536.933 785.333 542.133 761.066 548.667 731.333C555.467 700.399 558.667 685.199 579.2 586.666C586.933 549.733 593.333 518.399 593.333 517.066C593.333 515.066 633.733 471.999 635.467 471.999C635.733 471.999 636 553.333 636 652.666ZM692.133 517.999C699.733 525.999 722.133 549.466 742 569.999C788.4 618.266 797.333 627.733 797.333 629.066C797.333 630.933 676.267 750.666 674.533 750.666C673.333 750.666 673.067 736.933 673.733 692.399C674.267 660.399 674.667 603.866 674.667 566.799C674.667 510.133 674.933 499.733 676.4 501.333C677.467 502.399 684.533 509.866 692.133 517.999ZM539.333 593.466C535.2 611.333 529.2 638.266 526 653.333C522.8 668.399 517.067 693.866 513.333 709.999C509.6 726.133 506 741.999 505.333 745.333C504.667 748.666 501.067 765.199 497.2 781.999C493.467 798.933 489.333 817.199 488.133 822.666L486 832.666L374.267 833.066C312.8 833.199 262.667 832.799 262.933 832.266C263.333 831.333 303.6 792.133 354 743.999C408.267 692.133 430.133 671.199 442 659.999C449.333 653.199 465.867 637.199 478.667 624.799C523.333 581.199 545.6 559.866 546.133 560.399C546.4 560.666 543.333 575.599 539.333 593.466Z" fill="black"/>
<path d="M733.997 283.066C726.531 287.332 722.664 293.599 722.664 301.599C722.664 309.199 724.931 314.399 730.664 319.199C739.997 326.932 752.797 326.399 760.931 317.866C778.397 299.199 756.264 270.532 733.997 283.066Z" fill="black"/>
</g>
<defs>
<clipPath id="clip0_660_376">
<rect width="1066.67" height="1066.67" fill="white"/>
</clipPath>
</defs>
</svg>
